<?xml version="1.0" encoding="utf-8"?>
<!-- Generator: Adobe Illustrator 25.4.0, SVG Export Plug-In . SVG Version: 6.00 Build 0)  -->
<svg version="1.1" id="Layer_1" xmlns="http://www.w3.org/2000/svg" xmlns:xlink="http://www.w3.org/1999/xlink" x="0px" y="0px"
	 viewBox="0 0 40 40" style="enable-background:new 0 0 40 40;" xml:space="preserve">
<style type="text/css">
	.st0{display:none;}
	.st1{display:none;fill:#FFFFFF;}
	.st2{fill:#FFFFFF;}
	.st3{display:inline;}
</style>
<rect class="st0" width="40" height="40"/>
<path d="M20,0c-5.43,0-6.11,0.02-8.24,0.12C4.49,0.45,0.45,4.48,0.12,11.75C0.02,13.89,0,14.57,0,20s0.02,6.11,0.12,8.25
	c0.33,7.26,4.36,11.3,11.63,11.63C13.89,39.98,14.57,40,20,40s6.11-0.02,8.25-0.12c7.26-0.33,11.3-4.36,11.63-11.63
	C39.98,26.11,40,25.43,40,20s-0.02-6.11-0.12-8.24C39.55,4.5,35.52,0.45,28.25,0.12C26.11,0.02,25.43,0,20,0z"/>
<path class="st1" d="M20.73,40V25.95H16v-5.48h4.73v-4.04c0-4.69,2.86-7.24,7.04-7.24c2,0,3.72,0.15,4.23,0.22v4.9l-2.9,0
	c-2.27,0-2.71,1.08-2.71,2.67v3.5h5.42l-0.71,5.48h-4.72V40H20.73z"/>
<path class="st2" d="M13.5,27.5v-15l15,7.49L13.5,27.5z"/>
<path class="st1" d="M20,9.99C14.47,9.99,9.99,14.47,9.99,20S14.47,30.01,20,30.01S30.01,25.53,30.01,20
	C30.01,14.47,25.53,9.99,20,9.99z M20,26.5c-3.59,0-6.5-2.91-6.5-6.5c0-3.59,2.91-6.5,6.5-6.5s6.5,2.91,6.5,6.5
	C26.5,23.59,23.59,26.5,20,26.5z M30.41,7.25c-1.29,0-2.34,1.05-2.34,2.34s1.05,2.34,2.34,2.34c1.29,0,2.34-1.05,2.34-2.34
	S31.7,7.25,30.41,7.25z"/>
<g class="st0">
	<g class="st3">
		<path class="st2" d="M28.85,17.46c-0.13,0.08-0.23,0.22-0.27,0.38c-0.03,0.16-0.01,0.32,0.08,0.46c1.33,2.13,1.33,4.84,0,6.97
			c-0.18,0.28-0.09,0.66,0.19,0.83c0.29,0.18,0.66,0.09,0.84-0.19c1.58-2.53,1.58-5.72,0-8.24c-0.08-0.14-0.22-0.24-0.37-0.28
			C29.16,17.35,28.99,17.38,28.85,17.46L28.85,17.46z M28.85,17.46"/>
		<path class="st2" d="M32.59,15.39c-0.11-0.2-0.33-0.33-0.55-0.32c-0.23,0-0.43,0.14-0.53,0.35c-0.09,0.21-0.06,0.45,0.08,0.63
			c2.28,3.46,2.28,7.96,0,11.42c-0.14,0.18-0.18,0.42-0.08,0.63c0.1,0.21,0.3,0.34,0.53,0.35c0.23,0,0.44-0.12,0.55-0.32
			C35.14,24.28,35.14,19.26,32.59,15.39L32.59,15.39z M32.59,15.39"/>
		<path class="st2" d="M25.16,18.49c-0.21,0.08-0.35,0.27-0.37,0.5c-0.08,0.71-0.25,1.42-0.51,2.09c-0.13,0.3-0.47,0.45-0.78,0.33
			c-0.15-0.06-0.27-0.17-0.34-0.32c-0.06-0.15-0.06-0.32,0-0.46c1.36-3.41-0.3-7.27-3.69-8.64h-0.08c-2.86-1.11-6.12-0.1-7.84,2.45
			c-0.11,0.16-0.14,0.37-0.07,0.56c0.07,0.18,0.23,0.32,0.42,0.37c1.03,0.26,1.97,0.79,2.72,1.53c0.11,0.11,0.18,0.27,0.18,0.43
			c0,0.16-0.07,0.31-0.18,0.43c-0.24,0.23-0.62,0.23-0.86,0c-0.71-0.7-1.61-1.17-2.6-1.33c-0.27-0.05-0.55-0.08-0.82-0.08
			c-2.67,0-4.83,2.16-4.83,4.83c0,2.67,2.16,4.83,4.83,4.83h12.69c1.77,0,3.35-1.09,3.96-2.75c0.61-1.66,0.13-3.52-1.21-4.67
			C25.6,18.44,25.36,18.4,25.16,18.49L25.16,18.49z M25.16,18.49"/>
	</g>
</g>
</svg>
