<?xml version="1.0" encoding="utf-8"?>
<!-- Generator: Adobe Illustrator 25.4.0, SVG Export Plug-In . SVG Version: 6.00 Build 0)  -->
<svg version="1.1" id="Layer_1" xmlns="http://www.w3.org/2000/svg" xmlns:xlink="http://www.w3.org/1999/xlink" x="0px" y="0px"
	 viewBox="0 0 40 40" style="enable-background:new 0 0 40 40;" xml:space="preserve">
<style type="text/css">
	.st0{display:none;}
	.st1{fill:#FFFFFF;}
	.st2{display:none;fill:#FFFFFF;}
	.st3{display:inline;}
</style>
<rect class="st0" width="40" height="40"/>
<path class="st1" d="M20,0c-5.4,0-6.1,0-8.2,0.1C4.5,0.4,0.4,4.5,0.1,11.8C0,13.9,0,14.6,0,20s0,6.1,0.1,8.2
	c0.3,7.3,4.4,11.3,11.6,11.6C13.9,40,14.6,40,20,40s6.1,0,8.2-0.1c7.3-0.3,11.3-4.4,11.6-11.6C40,26.1,40,25.4,40,20s0-6.1-0.1-8.2
	C39.5,4.5,35.5,0.4,28.2,0.1C26.1,0,25.4,0,20,0z"/>
<path class="st2" d="M20.7,40V26H16v-5.5h4.7v-4c0-4.7,2.9-7.2,7-7.2c2,0,3.7,0.1,4.2,0.2v4.9h-2.9c-2.3,0-2.7,1.1-2.7,2.7v3.5h5.4
	L31.1,26h-4.7v14H20.7z"/>
<path class="st2" d="M27.6,11.2c-3.6-0.2-11.6-0.2-15.2,0C8.5,11.4,8,13.8,8,20c0,6.2,0.5,8.5,4.4,8.8c3.6,0.2,11.6,0.2,15.2,0
	c3.9-0.3,4.4-2.6,4.4-8.8C32,13.8,31.5,11.4,27.6,11.2z M17,24v-8l8,4L17,24z"/>
<path d="M20,10c-5.5,0-10,4.5-10,10s4.5,10,10,10s10-4.5,10-10S25.5,10,20,10z M20,26.5c-3.6,0-6.5-2.9-6.5-6.5s2.9-6.5,6.5-6.5
	s6.5,2.9,6.5,6.5S23.6,26.5,20,26.5z M30.4,7.2c-1.3,0-2.3,1.1-2.3,2.3s1,2.3,2.3,2.3s2.3-1.1,2.3-2.3S31.7,7.2,30.4,7.2z"/>
<g class="st0">
	<g class="st3">
		<path class="st1" d="M28.9,17.5c-0.1,0.1-0.2,0.2-0.3,0.4c0,0.2,0,0.3,0.1,0.5c1.3,2.1,1.3,4.8,0,7c-0.2,0.3-0.1,0.7,0.2,0.8
			c0.3,0.2,0.7,0.1,0.8-0.2c1.6-2.5,1.6-5.7,0-8.2c-0.1-0.1-0.2-0.2-0.4-0.3C29.2,17.4,29,17.4,28.9,17.5L28.9,17.5z"/>
		<path class="st1" d="M32.6,15.4c-0.1-0.2-0.3-0.3-0.5-0.3c-0.2,0-0.4,0.1-0.5,0.4c-0.1,0.2-0.1,0.4,0.1,0.6c2.3,3.5,2.3,8,0,11.4
			c-0.1,0.2-0.2,0.4-0.1,0.6s0.3,0.3,0.5,0.4c0.2,0,0.4-0.1,0.5-0.3C35.1,24.3,35.1,19.3,32.6,15.4L32.6,15.4z"/>
		<path class="st1" d="M25.2,18.5c-0.2,0.1-0.4,0.3-0.4,0.5c-0.1,0.7-0.2,1.4-0.5,2.1c-0.1,0.3-0.5,0.5-0.8,0.3
			c-0.1-0.1-0.3-0.2-0.3-0.3c-0.1-0.1-0.1-0.3,0-0.5c1.4-3.4-0.3-7.3-3.7-8.6h-0.1c-2.9-1.1-6.1-0.1-7.8,2.4
			c-0.1,0.2-0.1,0.4-0.1,0.6c0.1,0.2,0.2,0.3,0.4,0.4c1,0.3,2,0.8,2.7,1.5c0.1,0.1,0.2,0.3,0.2,0.4s-0.1,0.3-0.2,0.4
			c-0.2,0.2-0.6,0.2-0.9,0c-0.7-0.7-1.6-1.2-2.6-1.3c-0.3,0-0.6-0.1-0.8-0.1c-2.7,0-4.8,2.2-4.8,4.8S7.7,26,10.3,26H23
			c1.8,0,3.4-1.1,4-2.8c0.6-1.7,0.1-3.5-1.2-4.7C25.6,18.4,25.4,18.4,25.2,18.5L25.2,18.5z"/>
	</g>
</g>
</svg>
