<?xml version="1.0" encoding="utf-8"?>
<!-- Generator: Adobe Illustrator 25.4.0, SVG Export Plug-In . SVG Version: 6.00 Build 0)  -->
<svg version="1.1" id="Layer_1" xmlns="http://www.w3.org/2000/svg" xmlns:xlink="http://www.w3.org/1999/xlink" x="0px" y="0px"
	 viewBox="0 0 40 40" style="enable-background:new 0 0 40 40;" xml:space="preserve">
<style type="text/css">
	.st0{display:none;}
	.st1{display:none;fill:#FFFFFF;}
	.st2{fill:#FFFFFF;}
</style>
<rect class="st0" width="40" height="40"/>
<path class="st0" d="M20,0c-5.43,0-6.11,0.02-8.24,0.12C4.49,0.45,0.45,4.48,0.12,11.75C0.02,13.89,0,14.57,0,20
	s0.02,6.11,0.12,8.25c0.33,7.26,4.36,11.3,11.63,11.63C13.89,39.98,14.57,40,20,40s6.11-0.02,8.25-0.12
	c7.26-0.33,11.3-4.36,11.63-11.63C39.98,26.11,40,25.43,40,20s-0.02-6.11-0.12-8.24C39.55,4.5,35.52,0.45,28.25,0.12
	C26.11,0.02,25.43,0,20,0z"/>
<path class="st1" d="M20.73,40V25.95H16v-5.48h4.73v-4.04c0-4.69,2.86-7.24,7.04-7.24c2,0,3.72,0.15,4.23,0.22v4.9l-2.9,0
	c-2.27,0-2.71,1.08-2.71,2.67v3.5h5.42l-0.71,5.48h-4.72V40H20.73z"/>
<path class="st1" d="M13.5,27.5v-15l15,7.49L13.5,27.5z"/>
<path class="st1" d="M20,9.99C14.47,9.99,9.99,14.47,9.99,20S14.47,30.01,20,30.01S30.01,25.53,30.01,20
	C30.01,14.47,25.53,9.99,20,9.99z M20,26.5c-3.59,0-6.5-2.91-6.5-6.5c0-3.59,2.91-6.5,6.5-6.5s6.5,2.91,6.5,6.5
	C26.5,23.59,23.59,26.5,20,26.5z M30.41,7.25c-1.29,0-2.34,1.05-2.34,2.34s1.05,2.34,2.34,2.34c1.29,0,2.34-1.05,2.34-2.34
	S31.7,7.25,30.41,7.25z"/>
<g>
	<g>
		<path class="st2" d="M32.21,16.5c-0.18,0.12-0.32,0.3-0.37,0.52c-0.05,0.21-0.01,0.44,0.11,0.63c1.83,2.94,1.83,6.67,0,9.62
			c-0.25,0.39-0.13,0.9,0.26,1.14c0.4,0.25,0.91,0.13,1.15-0.26c2.17-3.48,2.17-7.89,0-11.36c-0.11-0.2-0.3-0.33-0.51-0.38
			C32.63,16.35,32.4,16.38,32.21,16.5L32.21,16.5z M32.21,16.5"/>
		<path class="st2" d="M37.36,13.65c-0.15-0.27-0.45-0.45-0.76-0.44c-0.32,0.01-0.6,0.19-0.74,0.48c-0.13,0.29-0.08,0.62,0.11,0.87
			c3.15,4.78,3.15,10.97,0,15.75c-0.19,0.25-0.24,0.58-0.11,0.87c0.14,0.29,0.42,0.47,0.74,0.49c0.31,0.01,0.61-0.16,0.76-0.44
			C40.88,25.9,40.88,18.98,37.36,13.65L37.36,13.65z M37.36,13.65"/>
		<path class="st2" d="M27.11,17.92c-0.29,0.11-0.48,0.38-0.51,0.68c-0.1,0.98-0.34,1.96-0.7,2.88c-0.18,0.42-0.65,0.62-1.08,0.46
			c-0.21-0.08-0.37-0.24-0.46-0.44c-0.08-0.2-0.08-0.44-0.01-0.64c1.87-4.7-0.41-10.03-5.1-11.92h-0.11
			c-3.94-1.53-8.43-0.14-10.81,3.37c-0.16,0.22-0.19,0.51-0.1,0.77c0.1,0.25,0.31,0.44,0.58,0.51c1.42,0.36,2.71,1.09,3.75,2.12
			c0.16,0.16,0.25,0.37,0.25,0.59c0,0.22-0.09,0.43-0.25,0.59c-0.32,0.32-0.85,0.32-1.18,0c-0.98-0.97-2.23-1.61-3.58-1.84
			c-0.37-0.07-0.76-0.11-1.13-0.12C2.98,14.95,0,17.93,0,21.61c0,3.68,2.98,6.67,6.67,6.67h17.5c2.43,0.01,4.62-1.51,5.47-3.79
			c0.85-2.29,0.18-4.86-1.67-6.45C27.72,17.85,27.4,17.8,27.11,17.92L27.11,17.92z M27.11,17.92"/>
	</g>
</g>
</svg>
