<?xml version="1.0" encoding="utf-8"?>
<!-- Generator: Adobe Illustrator 25.4.0, SVG Export Plug-In . SVG Version: 6.00 Build 0)  -->
<svg version="1.1" id="Layer_1" xmlns="http://www.w3.org/2000/svg" xmlns:xlink="http://www.w3.org/1999/xlink" x="0px" y="0px"
	 viewBox="0 0 376 259" style="enable-background:new 0 0 376 259;" xml:space="preserve">
<style type="text/css">
	.st0{fill:#FFFFFF;}
</style>
<g>
	<path class="st0" d="M34.5,45.36l6.9-8.26c4.77,3.94,9.78,6.44,15.84,6.44c4.77,0,7.66-1.9,7.66-5v-0.15
		c0-2.95-1.82-4.47-10.69-6.74c-10.69-2.73-17.58-5.68-17.58-16.22v-0.15c0-9.63,7.73-15.99,18.57-15.99
		c7.73,0,14.32,2.43,19.7,6.74l-6.06,8.79c-4.7-3.26-9.32-5.23-13.79-5.23s-6.82,2.05-6.82,4.62v0.15c0,3.48,2.27,4.62,11.44,6.97
		c10.76,2.8,16.82,6.67,16.82,15.91v0.15c0,10.53-8.03,16.45-19.47,16.45C48.97,53.85,40.86,51.05,34.5,45.36z"/>
	<path class="st0" d="M97.86,10.81H81.72V0.04h43.96V10.8h-16.14v42.29H97.86V10.81z"/>
	<path class="st0" d="M146-0.34h10.76l22.74,53.43h-12.2l-4.85-11.9h-22.43l-4.85,11.9h-11.9L146-0.34z M158.28,30.89l-7.05-17.2
		l-7.05,17.2H158.28z"/>
	<path class="st0" d="M193.23,10.81h-16.14V0.04h43.96V10.8H204.9v42.29h-11.67V10.81z"/>
	<path class="st0" d="M230.53,0.04h11.67v53.05h-11.67V0.04z"/>
	<path class="st0" d="M284.71,26.72v-0.15c0-9.09-6.67-16.68-16.07-16.68s-15.92,7.43-15.92,16.52v0.15
		c0,9.09,6.67,16.67,16.07,16.67S284.71,35.81,284.71,26.72z"/>
	<path class="st0" d="M295.25,0.04h10.76l24.86,32.66V0.04h11.52v53.05h-9.93l-25.69-33.73v33.73h-11.52V0.04z"/>
	<path class="st0" d="M35.78,94.94v-0.15c0-15.08,11.75-27.44,27.81-27.44c9.55,0,15.31,2.58,20.84,7.28l-7.35,8.87
		c-4.09-3.41-7.73-5.38-13.87-5.38c-8.49,0-15.23,7.51-15.23,16.52v0.15c0,9.7,6.67,16.82,16.07,16.82c4.24,0,8.03-1.06,10.99-3.18
		v-7.58H63.29V90.77h23.04v23.04c-5.46,4.62-12.96,8.41-22.66,8.41C47.15,122.22,35.78,110.63,35.78,94.94z"/>
	<path class="st0" d="M115.75,67.89h10.76l22.74,53.43h-12.2l-4.85-11.9h-22.43l-4.85,11.9h-11.9L115.75,67.89z M128.03,99.11
		l-7.05-17.2l-7.05,17.2H128.03z"/>
	<path class="st0" d="M157.45,68.27h24.25c6.75,0,11.98,1.9,15.46,5.38c2.96,2.96,4.55,7.13,4.55,12.13v0.15
		c0,8.56-4.62,13.94-11.37,16.44l12.96,18.95h-13.64l-11.37-16.98h-9.17v16.98h-11.67L157.45,68.27L157.45,68.27z M180.94,94.03
		c5.68,0,8.94-3.03,8.94-7.5v-0.15c0-5-3.48-7.58-9.17-7.58h-11.6v15.23H180.94z"/>
	<path class="st0" d="M212.25,68.27h40.01v10.38h-28.42v10.76h25.01v10.38h-25.01v11.14h28.8v10.38h-40.39V68.27z"/>
	<path class="st0" d="M38.13,136.49h20.69c16.67,0,28.19,11.44,28.19,26.37v0.15c0,14.93-11.52,26.52-28.19,26.52H38.13V136.49z
		 M58.82,179c9.55,0,15.99-6.44,15.99-15.84v-0.15c0-9.4-6.44-15.99-15.99-15.99H49.8V179H58.82z"/>
	<path class="st0" d="M97.41,136.49h40.01v10.38H109v10.76h25.01v10.38H109v11.14h28.8v10.38H97.41V136.49z"/>
	<path class="st0" d="M144.56,181.81l6.9-8.26c4.77,3.94,9.77,6.44,15.84,6.44c4.78,0,7.66-1.9,7.66-5v-0.15
		c0-2.95-1.82-4.47-10.69-6.74c-10.68-2.73-17.58-5.68-17.58-16.22v-0.15c0-9.63,7.73-15.99,18.57-15.99
		c7.73,0,14.32,2.43,19.7,6.74l-6.06,8.79c-4.7-3.26-9.32-5.23-13.79-5.23s-6.82,2.05-6.82,4.62v0.15c0,3.48,2.28,4.62,11.44,6.97
		c10.76,2.8,16.83,6.67,16.83,15.91v0.15c0,10.53-8.03,16.45-19.48,16.45C159.04,190.3,150.93,187.49,144.56,181.81z"/>
	<path class="st0" d="M38.13,204.73h12.58l13.94,22.43l13.94-22.43h12.58v53.05h-11.6v-34.63L64.66,245.8h-0.3l-14.78-22.43v34.4
		H38.13V204.73z"/>
	<path class="st0" d="M104.46,204.73h11.67v53.05h-11.67V204.73z"/>
	<path class="st0" d="M129.4,204.73h10.76l24.86,32.66v-32.66h11.52v53.05h-9.93l-25.69-33.73v33.73H129.4V204.73z"/>
	<path class="st0" d="M189.29,204.73h40.01v10.38h-28.42v10.76h25.01v10.38h-25.01v11.14h28.8v10.38h-40.39V204.73z"/>
	<path class="st0" d="M236.44,250.05l6.9-8.26c4.77,3.94,9.77,6.44,15.84,6.44c4.78,0,7.66-1.9,7.66-5v-0.15
		c0-2.95-1.82-4.47-10.69-6.74c-10.68-2.73-17.58-5.68-17.58-16.22v-0.15c0-9.63,7.73-15.99,18.57-15.99
		c7.73,0,14.32,2.43,19.7,6.74l-6.06,8.79c-4.7-3.26-9.32-5.23-13.79-5.23s-6.82,2.05-6.82,4.62v0.15c0,3.48,2.28,4.62,11.44,6.97
		c10.76,2.8,16.83,6.67,16.83,15.91v0.15c0,10.53-8.03,16.45-19.48,16.45C250.91,258.53,242.8,255.73,236.44,250.05z"/>
</g>
</svg>
